<svg id="Layer_1" xmlns="http://www.w3.org/2000/svg" viewBox="0 0 169.1 169.1"><style>.st0{fill:#fff}</style><path class="st0" d="M122.4 0H46.7C20.9 0 0 20.9 0 46.7v75.8c0 25.7 20.9 46.7 46.7 46.7h75.8c25.7 0 46.7-20.9 46.7-46.7V46.7C169.1 20.9 148.1 0 122.4 0zm31.7 122.4c0 17.5-14.2 31.7-31.7 31.7H46.7c-17.5 0-31.7-14.2-31.7-31.7V46.7C15 29.2 29.2 15 46.7 15h75.8c17.5 0 31.7 14.2 31.7 31.7l-.1 75.7z"/><path class="st0" d="M84.5 41C60.5 41 41 60.5 41 84.5s19.5 43.6 43.6 43.6 43.6-19.5 43.6-43.6c-.1-24-19.6-43.5-43.7-43.5zm0 72.1c-15.7 0-28.6-12.8-28.6-28.6C56 68.8 68.8 56 84.5 56s28.6 12.8 28.6 28.6c0 15.7-12.8 28.5-28.6 28.5zm45.4-84.8c-2.9 0-5.7 1.2-7.8 3.2-2.1 2-3.2 4.9-3.2 7.8 0 2.9 1.2 5.7 3.2 7.8 2 2 4.9 3.2 7.8 3.2 2.9 0 5.7-1.2 7.8-3.2 2.1-2 3.2-4.9 3.2-7.8 0-2.9-1.2-5.7-3.2-7.8-2-2.1-4.9-3.2-7.8-3.2z"/></svg>