<svg id="Capa_1" xmlns="http://www.w3.org/2000/svg" viewBox="0 0 307.2 489.9"><style>.st0{fill:#009b8e}</style><path class="st0" d="M295.1 272.6c-5.5-4.3-62.9-68-78.4-77V30.3c0-16.8-13.6-30.3-30.3-30.3H30.3C13.5 0 0 13.6 0 30.3v289.4C0 336.5 13.6 350 30.3 350h68l-2.8-23.8c-.9-.8-1.5-1.3-2.4-2.1h-30c1-4 1.3-8.4.5-12.9-2.2-12.5-12.1-22.6-24.6-24.9-4.6-.9-9.1-.6-13.2.4V61.4c1.8.3 3.7.5 5.6.5 17 0 30.7-13.8 30.7-30.7 0-1.8-.2-3.6-.5-5.4h93.2c-.3 1.8-.5 3.6-.5 5.4 0 17 13.7 30.7 30.7 30.7 1.9 0 3.8-.2 5.6-.5v283.1c-10.6-7.8-22.4-32.2-22.4-32.2s-5.8-64.9-38.7-64.9c-.9 0-1.7 0-2.6.1 0 0-24.9 2.1-4.3 73.3l9.2 79.1s10.3 42.9 38.7 72.6v8.8c0 4.7 3.8 8.6 8.6 8.6h92.5c4.4 0 8-3.3 8.5-7.6 3.3-30.8 16.1-145.3 23.6-162.7 1.2-2.8 2.2-5.6 2.6-8.6 1.7-9.8 2.3-27.8-11.2-38.4z"/><circle class="st0" cx="111.7" cy="80.3" r="18.4"/><path class="st0" d="M41.9 177.1c0 31.7 22.2 58.2 51.9 64.9.9-1.7 1.8-3.2 2.9-4.8 9.8-14.3 23.1-16.9 27.6-17.3 1.8-.2 3.6-.3 5.4-.3 6.4 0 15.1 1.2 24.1 6 12.9-12.1 21-29.4 21-48.5 0-36.7-29.8-66.5-66.5-66.5s-66.4 29.8-66.4 66.5zm26.6-5.9c4 0 4.1 0 4.7-4 .5-3.1 1.4-6 2.6-8.9.7-1.6 1.8-2.2 3.4-1.7 2.5.7 4.9 1.4 7.4 2.2 2.3.7 2.6 1.5 1.6 3.7-2.2 4.5-3.1 9.1-2.8 14.1.1 1.3.2 2.6.8 3.7 1.9 4.3 6.6 4.9 9.5 1.3 1.5-1.8 2.5-3.9 3.4-6.1 1.6-3.8 3.1-7.6 5-11.1 6.3-11.4 20.6-14.5 30.4-6.4 3.5 2.9 5.9 6.7 7.1 11.1.5 1.9 1.5 2.8 3.5 2.7s3.9 0 5.9 0c1.8 0 2.7.9 2.7 2.6.1 2.1.1 4.2 0 6.3 0 1.9-1.1 2.7-2.9 2.7h-4.3c-3.2 0-3.3.1-3.8 3.2-.6 3.9-1.5 7.7-3.2 11.3-1.4 2.8-2.1 3.1-5 2.3-2.2-.6-4.4-1.2-6.5-1.9-2.5-.8-2.8-1.5-1.6-3.8 2.1-3.9 3.2-8.1 3.8-12.5.4-2.8.1-5.6-1.1-8.2-2.1-4.9-7.8-5.7-11.2-1.5-1.2 1.4-2 3-2.7 4.7-1.9 4.3-3.3 8.8-5.7 12.8-3.9 6.6-9.3 10.7-17.3 10.2-9-.5-14.7-5.7-17.7-13.9-1.2-3.4-1.2-3.4-4.8-3.5h-3.6c-2.7-.1-3.2-.5-3.2-3.2v-2.5c-.1-5.6-.1-5.6 5.6-5.7z"/></svg>