<svg id="Capa_1" xmlns="http://www.w3.org/2000/svg" viewBox="0 0 81.2 80.1"><style>.st0{fill:#009b8e}</style><path class="st0" d="M74.2 54c-1.1 0-2.2.4-3.1 1.2v-8.1c.6-.1 1.1-.7 1.1-1.4v-9.1c.7.3 1.5.5 2.2.5 3.7 0 6.8-4 6.8-8.9s-3-8.9-6.8-8.9c-.8 0-1.5.2-2.2.5v-9.1c0-.8-.6-1.4-1.4-1.4h-8.3c.3-.9.5-1.7.5-2.5C63 3 59 0 54 0c-4.9 0-8.9 3-8.9 6.8 0 .8.2 1.6.5 2.3h-8.3c-.8 0-1.4.6-1.4 1.4v.3H24.6l.8 1.3c.3.5.5 1.1.5 1.7 0 2.8-3.6 5.1-8.1 5.1s-8.1-2.3-8.1-5.1c0-.6.2-1.2.5-1.7l.8-1.3H0v13.8l1.5-1.5c1-1 2.3-1.5 3.6-1.5 3.1 0 5.5 2.9 5.5 6.4 0 3.5-2.5 6.4-5.5 6.4-1.3 0-2.6-.5-3.6-1.5L0 31.5v13.8h11.2c-.8.9-1.2 2-1.2 3.1 0 3.2 3.6 5.9 8.1 5.9s8.1-2.6 8.1-5.9c0-1.1-.4-2.2-1.2-3.1h11v.4c0 .5.3.9.7 1.2v8.6l1.3-.8c.5-.3 1.1-.5 1.7-.5 2.8 0 5.1 3.6 5.1 8.1s-2.3 8.1-5.1 8.1c-.6 0-1.2-.2-1.7-.5l-1.3-.8V80h13.8L49 78.5c-1-1-1.5-2.3-1.5-3.6 0-3.1 2.9-5.5 6.4-5.5 3.5 0 6.4 2.5 6.4 5.5 0 1.3-.5 2.6-1.5 3.6L57.3 80h13.8V68.9c.9.8 2 1.2 3.1 1.2 3.3 0 5.9-3.6 5.9-8.1 0-4.4-2.7-8-5.9-8zM37.7 10.9h11.6L48 9.4c-.7-.8-1.1-1.7-1.1-2.6 0-2.8 3.2-5 7.2-5 3.9 0 7.2 2.2 7.2 5 0 .9-.4 1.8-1.1 2.6l-1.3 1.5h11.6v12.3L72 22c.8-.7 1.6-1 2.5-1 2.8 0 5 3.2 5 7.2 0 3.9-2.2 7.2-5 7.2-.9 0-1.8-.3-2.5-1L70.4 33v10.9h-9.8l.1-.1c.8-.9 1.2-2 1.2-3.1 0-2.3-1.8-4.3-4.4-5.3-1-.5-2.2-.7-3.4-.7-.8 0-1.5.1-2.2.3-3.5.7-6 3-6 5.7 0 1.2.5 2.3 1.3 3.2h-9.4v-7.1c.7.4 1.4.6 2.2.6 3.3 0 6-4 6-9 0-5.1-2.6-9-6-9-.7 0-1.5.2-2.2.6l-.1-9.1zm-1.5 24.4v-.5c.1.1.2.2.3.2l-.3.3z"/></svg>