<svg id="Capa_1" xmlns="http://www.w3.org/2000/svg" viewBox="0 0 512 416.1"><style>.st0{fill:#fff}</style><path class="st0" d="M512 49.3c-18.8 8.4-39.1 14-60.3 16.5 21.7-13 38.3-33.6 46.2-58.1-20.3 12-42.8 20.8-66.7 25.5C412 12.8 384.7 0 354.5 0c-58 0-105 47-105 105 0 8.2.9 16.2 2.7 23.9-87.3-4.3-164.7-46.1-216.6-109.7-9 15.5-14.2 33.6-14.2 52.8 0 36.4 18.5 68.6 46.7 87.4-17.2-.5-33.4-5.3-47.6-13.1v1.3c0 50.9 36.2 93.3 84.3 103-8.8 2.4-18.1 3.7-27.7 3.7-6.8 0-13.3-.7-19.8-1.9 13.4 41.7 52.2 72.1 98.1 72.9-35.9 28.2-81.2 45-130.5 45-8.5 0-16.8-.5-25.1-1.5 46.5 29.8 101.7 47.2 161 47.2 193.2 0 298.9-160.1 298.9-298.9 0-4.6-.1-9.1-.3-13.6 20.7-14.7 38.5-33.2 52.6-54.2z"/></svg>