<?xml version="1.0" encoding="utf-8"?>
<!-- Generator: Adobe Illustrator 19.2.0, SVG Export Plug-In . SVG Version: 6.00 Build 0)  -->
<svg version="1.1" id="Capa_1" xmlns="http://www.w3.org/2000/svg" xmlns:xlink="http://www.w3.org/1999/xlink" x="0px" y="0px"
	 viewBox="0 0 81.2 80.1" style="enable-background:new 0 0 81.2 80.1;" xml:space="preserve">
<style type="text/css">
	.st0{fill:#009B8E;}
</style>
<g>
	<path class="st0" d="M74.2,54c-1.1,0-2.2,0.4-3.1,1.2v-8.1c0.6-0.1,1.1-0.7,1.1-1.4v-9.1c0.7,0.3,1.5,0.5,2.2,0.5
		c3.7,0,6.8-4,6.8-8.9c0-4.9-3-8.9-6.8-8.9c-0.8,0-1.5,0.2-2.2,0.5v-9.1c0-0.8-0.6-1.4-1.4-1.4h-8.3C62.8,8.4,63,7.6,63,6.8
		C63,3,59,0,54,0c-4.9,0-8.9,3-8.9,6.8c0,0.8,0.2,1.6,0.5,2.3h-8.3c-0.8,0-1.4,0.6-1.4,1.4v0.3H24.6l0.8,1.3
		c0.3,0.5,0.5,1.1,0.5,1.7c0,2.8-3.6,5.1-8.1,5.1s-8.1-2.3-8.1-5.1c0-0.6,0.2-1.2,0.5-1.7l0.8-1.3H0v13.8l1.5-1.5
		c1-1,2.3-1.5,3.6-1.5c3.1,0,5.5,2.9,5.5,6.4c0,3.5-2.5,6.4-5.5,6.4c-1.3,0-2.6-0.5-3.6-1.5L0,31.5v13.8h11.2
		c-0.8,0.9-1.2,2-1.2,3.1c0,3.2,3.6,5.9,8.1,5.9s8.1-2.6,8.1-5.9c0-1.1-0.4-2.2-1.2-3.1h11v0.4c0,0.5,0.3,0.9,0.7,1.2v8.6l1.3-0.8
		c0.5-0.3,1.1-0.5,1.7-0.5c2.8,0,5.1,3.6,5.1,8.1c0,4.5-2.3,8.1-5.1,8.1c-0.6,0-1.2-0.2-1.7-0.5l-1.3-0.8v10.9h13.8l-1.5-1.5
		c-1-1-1.5-2.3-1.5-3.6c0-3.1,2.9-5.5,6.4-5.5c3.5,0,6.4,2.5,6.4,5.5c0,1.3-0.5,2.6-1.5,3.6l-1.5,1.5h13.8V68.9
		c0.9,0.8,2,1.2,3.1,1.2c3.3,0,5.9-3.6,5.9-8.1C80.1,57.6,77.4,54,74.2,54z M37.7,10.9h11.6L48,9.4c-0.7-0.8-1.1-1.7-1.1-2.6
		c0-2.8,3.2-5,7.2-5c3.9,0,7.2,2.2,7.2,5c0,0.9-0.4,1.8-1.1,2.6l-1.3,1.5h11.6v12.3l1.5-1.2c0.8-0.7,1.6-1,2.5-1c2.8,0,5,3.2,5,7.2
		c0,3.9-2.2,7.2-5,7.2c-0.9,0-1.8-0.3-2.5-1L70.4,33v10.9h-9.8c0,0,0.1-0.1,0.1-0.1c0.8-0.9,1.2-2,1.2-3.1c0-2.3-1.8-4.3-4.4-5.3
		c-1-0.5-2.2-0.7-3.4-0.7c-0.8,0-1.5,0.1-2.2,0.3c-3.5,0.7-6,3-6,5.7c0,1.2,0.5,2.3,1.3,3.2h-9.4v-7.1c0.7,0.4,1.4,0.6,2.2,0.6
		c3.3,0,6-4,6-9c0-5.1-2.6-9-6-9c-0.7,0-1.5,0.2-2.2,0.6L37.7,10.9L37.7,10.9L37.7,10.9z M36.2,35.3v-0.5c0.1,0.1,0.2,0.2,0.3,0.2
		C36.4,35.1,36.3,35.2,36.2,35.3z"/>
</g>
</svg>
