<?xml version="1.0" encoding="utf-8"?>
<!-- Generator: Adobe Illustrator 19.2.0, SVG Export Plug-In . SVG Version: 6.00 Build 0)  -->
<svg version="1.1" id="Capa_1" xmlns="http://www.w3.org/2000/svg" xmlns:xlink="http://www.w3.org/1999/xlink" x="0px" y="0px"
	 viewBox="0 0 27 23.5" style="enable-background:new 0 0 27 23.5;" xml:space="preserve">
<style type="text/css">
	.st0{fill:#009B8E;}
</style>
<g>
	<g>
		<path class="st0" d="M17.9,19.4c0-1.9,1-3.5,2.6-4.4c-1-0.3-2-0.6-3.1-0.7c2.3-1.3,3.9-3.8,3.9-6.7c0-4.2-3.4-7.6-7.6-7.6
			S6,3.4,6,7.6c0,2.9,1.6,5.4,3.9,6.7c-5.8,0.9-10,3.8-10,7.3h18.4C18,20.9,17.9,20.2,17.9,19.4z"/>
	</g>
	<path class="st0" d="M23,15.4c-2.2,0-4,1.8-4,4c0,2.2,1.8,4,4,4c2.2,0,4-1.8,4-4C27,17.2,25.2,15.4,23,15.4z M25.6,20.2h-1.9v1.9
		h-1.4v-1.9h-1.9v-1.4h1.9v-1.9h1.4v1.9h1.9V20.2z"/>
</g>
</svg>
