<?xml version="1.0" encoding="utf-8"?>
<!-- Generator: Adobe Illustrator 19.2.0, SVG Export Plug-In . SVG Version: 6.00 Build 0)  -->
<svg version="1.1" id="Capa_1" xmlns="http://www.w3.org/2000/svg" xmlns:xlink="http://www.w3.org/1999/xlink" x="0px" y="0px"
	 viewBox="0 0 284.9 166.2" style="enable-background:new 0 0 284.9 166.2;" xml:space="preserve">
<style type="text/css">
	.st0{fill:#FFFFFF;}
</style>
<g>
	<path class="st0" d="M282.1,135.9L149,2.9C147.1,1,144.9,0,142.5,0s-4.7,1-6.6,2.9l-133,133C0.9,137.8,0,140,0,142.5
		c0,2.5,1,4.7,2.9,6.6l14.3,14.3c1.9,1.9,4.1,2.9,6.6,2.9s4.7-1,6.6-2.9L142.5,51.1l112.2,112.2c1.9,1.9,4.1,2.8,6.6,2.8
		c2.5,0,4.7-1,6.6-2.8l14.3-14.3c1.9-1.9,2.8-4.1,2.8-6.6C284.9,140,284,137.8,282.1,135.9z"/>
</g>
</svg>
